<svg width="1600" height="900" viewBox="0 0 1600 900" fill="none" xmlns="http://www.w3.org/2000/svg">
  <defs>
    <linearGradient id="bg" x1="200" y1="50" x2="1400" y2="850" gradientUnits="userSpaceOnUse">
      <stop stop-color="#0F172A"/>
      <stop offset="0.45" stop-color="#0F172A"/>
      <stop offset="1" stop-color="#14B8A6"/>
    </linearGradient>
    <radialGradient id="glow1" cx="0" cy="0" r="1" gradientUnits="userSpaceOnUse" gradientTransform="translate(400 220) rotate(45) scale(420 320)">
      <stop stop-color="#22D3EE" stop-opacity="0.7"/>
      <stop offset="1" stop-color="#0EA5E9" stop-opacity="0"/>
    </radialGradient>
    <radialGradient id="glow2" cx="0" cy="0" r="1" gradientUnits="userSpaceOnUse" gradientTransform="translate(1250 700) rotate(-30) scale(380 360)">
      <stop stop-color="#5EEAD4" stop-opacity="0.7"/>
      <stop offset="1" stop-color="#0F172A" stop-opacity="0"/>
    </radialGradient>
    <linearGradient id="panel" x1="140" y1="160" x2="1460" y2="740" gradientUnits="userSpaceOnUse">
      <stop stop-color="#0B2435" stop-opacity="0.85"/>
      <stop offset="1" stop-color="#0F172A" stop-opacity="0.9"/>
    </linearGradient>
    <linearGradient id="accent" x1="280" y1="250" x2="1320" y2="650" gradientUnits="userSpaceOnUse">
      <stop stop-color="#2DD4BF" stop-opacity="0.8"/>
      <stop offset="1" stop-color="#60A5FA" stop-opacity="0.8"/>
    </linearGradient>
  </defs>

  <rect width="1600" height="900" fill="url(#bg)"/>
  <rect width="1600" height="900" fill="url(#glow1)"/>
  <rect width="1600" height="900" fill="url(#glow2)"/>

  <rect x="120" y="120" width="1360" height="660" rx="32" fill="url(#panel)" stroke="rgba(255,255,255,0.1)" stroke-width="2"/>
  <rect x="180" y="190" width="1240" height="520" rx="24" fill="#0A1F2D" opacity="0.6"/>

  <rect x="210" y="225" width="1180" height="70" rx="14" fill="#0F2837" stroke="rgba(255,255,255,0.08)" stroke-width="1.5"/>
  <circle cx="250" cy="260" r="10" fill="#EF4444"/>
  <circle cx="285" cy="260" r="10" fill="#F59E0B"/>
  <circle cx="320" cy="260" r="10" fill="#10B981"/>
  <rect x="370" y="247" width="220" height="26" rx="8" fill="#0EA5E9" opacity="0.8"/>
  <rect x="610" y="247" width="180" height="26" rx="8" fill="#22D3EE" opacity="0.7"/>
  <rect x="820" y="247" width="140" height="26" rx="8" fill="#CBD5E1" opacity="0.35"/>

  <rect x="210" y="330" width="1180" height="320" rx="22" fill="#0C2537" opacity="0.8" stroke="rgba(255,255,255,0.05)" stroke-width="1.5"/>
  <rect x="240" y="360" width="420" height="90" rx="16" fill="rgba(255,255,255,0.06)" stroke="rgba(255,255,255,0.08)" stroke-width="1"/>
  <rect x="700" y="360" width="360" height="90" rx="16" fill="rgba(255,255,255,0.05)" stroke="rgba(255,255,255,0.08)" stroke-width="1"/>
  <rect x="1100" y="360" width="220" height="90" rx="16" fill="rgba(255,255,255,0.05)" stroke="rgba(255,255,255,0.08)" stroke-width="1"/>

  <rect x="240" y="475" width="1080" height="20" rx="10" fill="url(#accent)" opacity="0.8"/>
  <rect x="240" y="515" width="720" height="12" rx="6" fill="rgba(255,255,255,0.25)"/>
  <rect x="240" y="540" width="540" height="12" rx="6" fill="rgba(255,255,255,0.12)"/>
  <rect x="240" y="565" width="420" height="12" rx="6" fill="rgba(255,255,255,0.12)"/>
  <rect x="240" y="590" width="320" height="12" rx="6" fill="rgba(255,255,255,0.12)"/>
  <rect x="240" y="615" width="260" height="12" rx="6" fill="rgba(255,255,255,0.12)"/>

  <rect x="1110" y="510" width="280" height="40" rx="12" fill="#14B8A6" opacity="0.85"/>
  <rect x="1110" y="565" width="220" height="34" rx="10" fill="#38BDF8" opacity="0.75"/>

  <rect x="210" y="675" width="540" height="40" rx="12" fill="rgba(255,255,255,0.08)"/>
  <rect x="780" y="675" width="280" height="40" rx="12" fill="rgba(255,255,255,0.12)"/>
  <rect x="1090" y="675" width="300" height="40" rx="12" fill="rgba(255,255,255,0.08)"/>

  <rect x="240" y="705" width="240" height="8" rx="4" fill="rgba(255,255,255,0.25)"/>
  <rect x="780" y="705" width="200" height="8" rx="4" fill="rgba(255,255,255,0.18)"/>
  <rect x="1110" y="705" width="220" height="8" rx="4" fill="rgba(255,255,255,0.18)"/>
</svg>
