<svg width="1200" height="675" viewBox="0 0 1200 675" fill="none" xmlns="http://www.w3.org/2000/svg">
  <defs>
    <linearGradient id="bgm" x1="80" y1="30" x2="1120" y2="650" gradientUnits="userSpaceOnUse">
      <stop stop-color="#0F172A"/>
      <stop offset="0.5" stop-color="#0F172A"/>
      <stop offset="1" stop-color="#0EA5E9"/>
    </linearGradient>
    <radialGradient id="glowm1" cx="0" cy="0" r="1" gradientUnits="userSpaceOnUse" gradientTransform="translate(260 160) rotate(35) scale(340 240)">
      <stop stop-color="#22D3EE" stop-opacity="0.7"/>
      <stop offset="1" stop-color="#0EA5E9" stop-opacity="0"/>
    </radialGradient>
    <radialGradient id="glowm2" cx="0" cy="0" r="1" gradientUnits="userSpaceOnUse" gradientTransform="translate(980 520) rotate(-25) scale(320 260)">
      <stop stop-color="#5EEAD4" stop-opacity="0.7"/>
      <stop offset="1" stop-color="#0F172A" stop-opacity="0"/>
    </radialGradient>
    <linearGradient id="accentm" x1="180" y1="220" x2="980" y2="500" gradientUnits="userSpaceOnUse">
      <stop stop-color="#2DD4BF" stop-opacity="0.85"/>
      <stop offset="1" stop-color="#60A5FA" stop-opacity="0.75"/>
    </linearGradient>
  </defs>

  <rect width="1200" height="675" fill="url(#bgm)"/>
  <rect width="1200" height="675" fill="url(#glowm1)"/>
  <rect width="1200" height="675" fill="url(#glowm2)"/>

  <rect x="80" y="86" width="1040" height="503" rx="26" fill="#0B2234" opacity="0.88" stroke="rgba(255,255,255,0.08)" stroke-width="2"/>
  <rect x="120" y="136" width="960" height="403" rx="22" fill="#0C2638" opacity="0.7"/>

  <rect x="150" y="170" width="900" height="62" rx="14" fill="#0F2837" stroke="rgba(255,255,255,0.08)" stroke-width="1.5"/>
  <circle cx="180" cy="201" r="8.5" fill="#EF4444"/>
  <circle cx="210" cy="201" r="8.5" fill="#F59E0B"/>
  <circle cx="240" cy="201" r="8.5" fill="#10B981"/>
  <rect x="280" y="190" width="190" height="22" rx="8" fill="#0EA5E9" opacity="0.82"/>
  <rect x="490" y="190" width="150" height="22" rx="8" fill="#22D3EE" opacity="0.7"/>
  <rect x="670" y="190" width="120" height="22" rx="8" fill="#CBD5E1" opacity="0.35"/>

  <rect x="150" y="260" width="900" height="245" rx="18" fill="#0C2434" opacity="0.85" stroke="rgba(255,255,255,0.05)" stroke-width="1.5"/>
  <rect x="180" y="288" width="370" height="76" rx="14" fill="rgba(255,255,255,0.06)" stroke="rgba(255,255,255,0.08)" stroke-width="1"/>
  <rect x="580" y="288" width="310" height="76" rx="14" fill="rgba(255,255,255,0.05)" stroke="rgba(255,255,255,0.08)" stroke-width="1"/>
  <rect x="920" y="288" width="100" height="76" rx="14" fill="rgba(255,255,255,0.05)" stroke="rgba(255,255,255,0.08)" stroke-width="1"/>

  <rect x="180" y="380" width="860" height="18" rx="9" fill="url(#accentm)" opacity="0.85"/>
  <rect x="180" y="412" width="540" height="11" rx="5.5" fill="rgba(255,255,255,0.24)"/>
  <rect x="180" y="435" width="400" height="11" rx="5.5" fill="rgba(255,255,255,0.16)"/>
  <rect x="180" y="458" width="320" height="11" rx="5.5" fill="rgba(255,255,255,0.16)"/>
  <rect x="180" y="481" width="240" height="11" rx="5.5" fill="rgba(255,255,255,0.16)"/>

  <rect x="810" y="428" width="230" height="32" rx="10" fill="#14B8A6" opacity="0.85"/>
  <rect x="810" y="470" width="190" height="28" rx="9" fill="#38BDF8" opacity="0.78"/>

  <rect x="150" y="530" width="380" height="32" rx="10" fill="rgba(255,255,255,0.08)"/>
  <rect x="560" y="530" width="260" height="32" rx="10" fill="rgba(255,255,255,0.12)"/>
  <rect x="860" y="530" width="190" height="32" rx="10" fill="rgba(255,255,255,0.08)"/>

  <rect x="180" y="556" width="200" height="7" rx="3.5" fill="rgba(255,255,255,0.24)"/>
  <rect x="560" y="556" width="170" height="7" rx="3.5" fill="rgba(255,255,255,0.18)"/>
  <rect x="860" y="556" width="160" height="7" rx="3.5" fill="rgba(255,255,255,0.18)"/>
</svg>
