<svg width="88" height="24" viewBox="0 0 88 24" fill="none" xmlns="http://www.w3.org/2000/svg">
<path d="M4.18 18.78H8.78V21H1.38V7.04H4.18V18.78ZM21.0197 9.92V21H18.1997V19.6C17.8397 20.08 17.3664 20.46 16.7797 20.74C16.2064 21.0067 15.5797 21.14 14.8997 21.14C14.033 21.14 13.2664 20.96 12.5997 20.6C11.933 20.2267 11.4064 19.6867 11.0197 18.98C10.6464 18.26 10.4597 17.4067 10.4597 16.42V9.92H13.2597V16.02C13.2597 16.9 13.4797 17.58 13.9197 18.06C14.3597 18.5267 14.9597 18.76 15.7197 18.76C16.493 18.76 17.0997 18.5267 17.5397 18.06C17.9797 17.58 18.1997 16.9 18.1997 16.02V9.92H21.0197ZM37.5423 9.76C38.9023 9.76 39.9957 10.18 40.8223 11.02C41.6623 11.8467 42.0823 13.0067 42.0823 14.5V21H39.2823V14.88C39.2823 14.0133 39.0623 13.3533 38.6223 12.9C38.1823 12.4333 37.5823 12.2 36.8223 12.2C36.0623 12.2 35.4557 12.4333 35.0023 12.9C34.5623 13.3533 34.3423 14.0133 34.3423 14.88V21H31.5423V14.88C31.5423 14.0133 31.3223 13.3533 30.8823 12.9C30.4423 12.4333 29.8423 12.2 29.0823 12.2C28.309 12.2 27.6957 12.4333 27.2423 12.9C26.8023 13.3533 26.5823 14.0133 26.5823 14.88V21H23.7823V9.92H26.5823V11.26C26.9423 10.7933 27.4023 10.4267 27.9623 10.16C28.5357 9.89333 29.1623 9.76 29.8423 9.76C30.709 9.76 31.4823 9.94667 32.1623 10.32C32.8423 10.68 33.369 11.2 33.7423 11.88C34.1023 11.24 34.6223 10.7267 35.3023 10.34C35.9957 9.95333 36.7423 9.76 37.5423 9.76ZM47.6594 9.92V21H44.8594V9.92H47.6594ZM54.7802 21.18C53.8735 21.18 53.0602 21.02 52.3402 20.7C51.6202 20.3667 51.0468 19.92 50.6202 19.36C50.2068 18.8 49.9802 18.18 49.9402 17.5H52.7602C52.8135 17.9267 53.0202 18.28 53.3802 18.56C53.7535 18.84 54.2135 18.98 54.7602 18.98C55.2935 18.98 55.7068 18.8733 56.0002 18.66C56.3068 18.4467 56.4602 18.1733 56.4602 17.84C56.4602 17.48 56.2735 17.2133 55.9002 17.04C55.5402 16.8533 54.9602 16.6533 54.1602 16.44C53.3335 16.24 52.6535 16.0333 52.1202 15.82C51.6002 15.6067 51.1468 15.28 50.7602 14.84C50.3868 14.4 50.2002 13.8067 50.2002 13.06C50.2002 12.4467 50.3735 11.8867 50.7202 11.38C51.0802 10.8733 51.5868 10.4733 52.2402 10.18C52.9068 9.88667 53.6868 9.74 54.5802 9.74C55.9002 9.74 56.9535 10.0733 57.7402 10.74C58.5268 11.3933 58.9602 12.28 59.0402 13.4H56.3602C56.3202 12.96 56.1335 12.6133 55.8002 12.36C55.4802 12.0933 55.0468 11.96 54.5002 11.96C53.9935 11.96 53.6002 12.0533 53.3202 12.24C53.0535 12.4267 52.9202 12.6867 52.9202 13.02C52.9202 13.3933 53.1068 13.68 53.4802 13.88C53.8535 14.0667 54.4335 14.26 55.2202 14.46C56.0202 14.66 56.6802 14.8667 57.2002 15.08C57.7202 15.2933 58.1668 15.6267 58.5402 16.08C58.9268 16.52 59.1268 17.1067 59.1402 17.84C59.1402 18.48 58.9602 19.0533 58.6002 19.56C58.2535 20.0667 57.7468 20.4667 57.0802 20.76C56.4268 21.04 55.6602 21.18 54.7802 21.18Z" fill="black"/>
<path d="M66.4931 10C65.5456 10 64.6529 10.2619 63.8702 10.6892L68.2921 13.9148L69.3221 10.8133C68.4981 10.317 67.5231 10 66.4931 10ZM62.7166 11.5576C61.6729 12.5639 61 13.9561 61 15.5276C61 15.8722 61.0275 16.1892 61.0824 16.5201L65.3258 13.4599L62.7029 11.5576H62.7166ZM70.4482 11.7368L68.7728 16.906H71.7803C71.8901 16.4649 72 16.01 72 15.5276C72 14.0526 71.3958 12.7293 70.4482 11.7368ZM63.9663 16.1754L61.563 17.8985C62.3184 19.4561 63.7603 20.6416 65.5181 20.9586L63.9663 16.1754ZM66.1086 18.2845L66.9738 21C68.8002 20.8346 70.3521 19.787 71.2172 18.2845H66.1086Z" fill="black"/>
<path d="M48.988 4.38203C48.9693 4.32096 48.9365 4.26413 48.8918 4.21527C48.847 4.16641 48.7913 4.12661 48.7284 4.09848L47.0357 3.34233L47.4901 0.511288C47.505 0.413173 47.4836 0.313355 47.4293 0.227303C47.3749 0.141251 47.2905 0.0737691 47.1893 0.0353149C47.088 -0.00313933 46.9756 -0.0104189 46.8693 0.0146042C46.763 0.0396273 46.6688 0.095556 46.6013 0.173723L43.1062 4.2245C43.0587 4.27912 43.0259 4.34288 43.0104 4.4108C42.9948 4.47873 42.9968 4.54898 43.0163 4.61608C43.0383 4.68321 43.0767 4.74508 43.1285 4.79724C43.1803 4.84939 43.2443 4.89051 43.3159 4.91764L45.4479 5.68729L44.9936 8.48683C44.9781 8.58731 45.0008 8.68955 45.0579 8.77696C45.115 8.86438 45.2031 8.93184 45.3081 8.96842C45.3666 8.99029 45.4295 9.00102 45.4929 8.99992C45.5751 8.99954 45.656 8.98085 45.7283 8.94552C45.8006 8.91018 45.862 8.8593 45.9073 8.79739L48.9031 4.7466C48.9453 4.69482 48.9747 4.63549 48.9894 4.57261C49.004 4.50972 49.0035 4.44474 48.988 4.38203Z" fill="#24B29F"/>
</svg>
