<svg width="71" height="22" viewBox="0 0 71 22" fill="none" xmlns="http://www.w3.org/2000/svg">
<path d="M3.18 18.78H7.78V21H0.38V7.04H3.18V18.78ZM20.0197 9.92V21H17.1997V19.6C16.8397 20.08 16.3664 20.46 15.7797 20.74C15.2064 21.0067 14.5797 21.14 13.8997 21.14C13.033 21.14 12.2664 20.96 11.5997 20.6C10.933 20.2267 10.4064 19.6867 10.0197 18.98C9.64635 18.26 9.45969 17.4067 9.45969 16.42V9.92H12.2597V16.02C12.2597 16.9 12.4797 17.58 12.9197 18.06C13.3597 18.5267 13.9597 18.76 14.7197 18.76C15.493 18.76 16.0997 18.5267 16.5397 18.06C16.9797 17.58 17.1997 16.9 17.1997 16.02V9.92H20.0197ZM36.5423 9.76C37.9023 9.76 38.9957 10.18 39.8223 11.02C40.6623 11.8467 41.0823 13.0067 41.0823 14.5V21H38.2823V14.88C38.2823 14.0133 38.0623 13.3533 37.6223 12.9C37.1823 12.4333 36.5823 12.2 35.8223 12.2C35.0623 12.2 34.4557 12.4333 34.0023 12.9C33.5623 13.3533 33.3423 14.0133 33.3423 14.88V21H30.5423V14.88C30.5423 14.0133 30.3223 13.3533 29.8823 12.9C29.4423 12.4333 28.8423 12.2 28.0823 12.2C27.309 12.2 26.6957 12.4333 26.2423 12.9C25.8023 13.3533 25.5823 14.0133 25.5823 14.88V21H22.7823V9.92H25.5823V11.26C25.9423 10.7933 26.4023 10.4267 26.9623 10.16C27.5357 9.89333 28.1623 9.76 28.8423 9.76C29.709 9.76 30.4823 9.94667 31.1623 10.32C31.8423 10.68 32.369 11.2 32.7423 11.88C33.1023 11.24 33.6223 10.7267 34.3023 10.34C34.9957 9.95333 35.7423 9.76 36.5423 9.76ZM46.6594 9.92V21H43.8594V9.92H46.6594ZM53.7802 21.18C52.8735 21.18 52.0602 21.02 51.3402 20.7C50.6202 20.3667 50.0468 19.92 49.6202 19.36C49.2068 18.8 48.9802 18.18 48.9402 17.5H51.7602C51.8135 17.9267 52.0202 18.28 52.3802 18.56C52.7535 18.84 53.2135 18.98 53.7602 18.98C54.2935 18.98 54.7068 18.8733 55.0002 18.66C55.3068 18.4467 55.4602 18.1733 55.4602 17.84C55.4602 17.48 55.2735 17.2133 54.9002 17.04C54.5402 16.8533 53.9602 16.6533 53.1602 16.44C52.3335 16.24 51.6535 16.0333 51.1202 15.82C50.6002 15.6067 50.1468 15.28 49.7602 14.84C49.3868 14.4 49.2002 13.8067 49.2002 13.06C49.2002 12.4467 49.3735 11.8867 49.7202 11.38C50.0802 10.8733 50.5868 10.4733 51.2402 10.18C51.9068 9.88667 52.6868 9.74 53.5802 9.74C54.9002 9.74 55.9535 10.0733 56.7402 10.74C57.5268 11.3933 57.9602 12.28 58.0402 13.4H55.3602C55.3202 12.96 55.1335 12.6133 54.8002 12.36C54.4802 12.0933 54.0468 11.96 53.5002 11.96C52.9935 11.96 52.6002 12.0533 52.3202 12.24C52.0535 12.4267 51.9202 12.6867 51.9202 13.02C51.9202 13.3933 52.1068 13.68 52.4802 13.88C52.8535 14.0667 53.4335 14.26 54.2202 14.46C55.0202 14.66 55.6802 14.8667 56.2002 15.08C56.7202 15.2933 57.1668 15.6267 57.5402 16.08C57.9268 16.52 58.1268 17.1067 58.1402 17.84C58.1402 18.48 57.9602 19.0533 57.6002 19.56C57.2535 20.0667 56.7468 20.4667 56.0802 20.76C55.4268 21.04 54.6602 21.18 53.7802 21.18Z" fill="white"/>
<path d="M65.4931 10C64.5456 10 63.6529 10.2619 62.8702 10.6892L67.2921 13.9148L68.3221 10.8133C67.4981 10.317 66.5231 10 65.4931 10ZM61.7166 11.5576C60.6729 12.5639 60 13.9561 60 15.5276C60 15.8722 60.0275 16.1892 60.0824 16.5201L64.3258 13.4599L61.7029 11.5576H61.7166ZM69.4482 11.7368L67.7728 16.906H70.7803C70.8901 16.4649 71 16.01 71 15.5276C71 14.0526 70.3958 12.7293 69.4482 11.7368ZM62.9663 16.1754L60.563 17.8985C61.3184 19.4561 62.7603 20.6416 64.5181 20.9586L62.9663 16.1754ZM65.1086 18.2845L65.9738 21C67.8002 20.8346 69.3521 19.787 70.2172 18.2845H65.1086Z" fill="white"/>
<path d="M47.988 4.38203C47.9693 4.32096 47.9365 4.26413 47.8918 4.21527C47.847 4.16641 47.7913 4.12661 47.7284 4.09848L46.0357 3.34233L46.4901 0.511288C46.505 0.413173 46.4836 0.313355 46.4293 0.227303C46.3749 0.141251 46.2905 0.0737691 46.1893 0.0353149C46.088 -0.00313933 45.9756 -0.0104189 45.8693 0.0146042C45.763 0.0396273 45.6688 0.095556 45.6013 0.173723L42.1062 4.2245C42.0587 4.27912 42.0259 4.34288 42.0104 4.4108C41.9948 4.47873 41.9968 4.54898 42.0163 4.61608C42.0383 4.68321 42.0767 4.74508 42.1285 4.79724C42.1803 4.84939 42.2443 4.89051 42.3159 4.91764L44.4479 5.68729L43.9936 8.48683C43.9781 8.58731 44.0008 8.68955 44.0579 8.77696C44.115 8.86438 44.2031 8.93184 44.3081 8.96842C44.3666 8.99029 44.4295 9.00102 44.4929 8.99992C44.5751 8.99954 44.656 8.98085 44.7283 8.94552C44.8006 8.91018 44.862 8.8593 44.9073 8.79738L47.9031 4.7466C47.9453 4.69482 47.9747 4.63549 47.9894 4.57261C48.004 4.50972 48.0035 4.44474 47.988 4.38203Z" fill="#24B29F"/>
</svg>
